<svg width="500" height="500" version="1.1" xmlns="http://www.w3.org/2000/svg" desc="Created with imagetracer.js version 1.2.6" ><path fill="rgb(252,252,252)" stroke="rgb(252,252,252)" stroke-width="1" opacity="1" d="M 210.5 68 L 223 68.5 L 210.5 69 L 210.5 68 Z " /><path fill="rgb(252,252,252)" stroke="rgb(252,252,252)" stroke-width="1" opacity="1" d="M 201.5 69 L 205 69.5 L 201.5 70 L 201.5 69 Z " /><path fill="rgb(252,252,252)" stroke="rgb(252,252,252)" stroke-width="1" opacity="1" d="M 229.5 69 L 233 69.5 L 229.5 70 L 229.5 69 Z " /><path fill="rgb(252,252,252)" stroke="rgb(252,252,252)" stroke-width="1" opacity="1" d="M 240.5 71 L 243 71.5 L 240.5 72 L 240.5 71 Z " /><path fill="rgb(252,252,252)" stroke="rgb(252,252,252)" stroke-width="1" opacity="1" d="M 165.5 83 L 163.5 86 L 165.5 83 Z " /><path fill="rgb(252,252,252)" stroke="rgb(252,252,252)" stroke-width="1" opacity="1" d="M 160.5 87 L 154.5 94 L 160.5 87 Z " /><path fill="rgb(252,252,252)" stroke="rgb(252,252,252)" stroke-width="1" opacity="1" d="M 274.5 87 L 276.5 90 L 274.5 87 Z " /><path fill="rgb(252,252,252)" stroke="rgb(252,252,252)" stroke-width="1" opacity="1" d="M 279.5 91 L 290.5 103 L 279.5 91 Z " /><path fill="rgb(252,252,252)" stroke="rgb(252,252,252)" stroke-width="1" opacity="1" d="M 151.5 97 L 150.5 99 L 151.5 97 Z " /><path fill="rgb(252,252,252)" stroke="rgb(252,252,252)" stroke-width="1" opacity="1" d="M 145.5 106 L 144.5 108 L 145.5 106 Z " /><path fill="rgb(252,252,252)" stroke="rgb(252,252,252)" stroke-width="1" opacity="1" d="M 300.5 112 L 311.5 124 L 300.5 112 Z " /><path fill="rgb(252,252,252)" stroke="rgb(252,252,252)" stroke-width="1" opacity="1" d="M 319.5 130 L 324.5 136 L 319.5 130 Z " /><path fill="rgb(252,252,252)" stroke="rgb(252,252,252)" stroke-width="1" opacity="1" d="M 129.5 135 L 126.5 139 L 129.5 135 Z " /><path fill="rgb(252,252,252)" stroke="rgb(252,252,252)" stroke-width="1" opacity="1" d="M 328.5 138 L 330.5 141 L 328.5 138 Z " /><path fill="rgb(252,252,252)" stroke="rgb(252,252,252)" stroke-width="1" opacity="1" d="M 122.5 141 L 120.5 144 L 122.5 141 Z " /><path fill="rgb(252,252,252)" stroke="rgb(252,252,252)" stroke-width="1" opacity="1" d="M 334.5 143 L 335.5 145 L 334.5 143 Z " /><path fill="rgb(252,252,252)" stroke="rgb(252,252,252)" stroke-width="1" opacity="1" d="M 117.5 145 L 116.5 147 L 117.5 145 Z " /><path fill="rgb(252,252,252)" stroke="rgb(252,252,252)" stroke-width="1" opacity="1" d="M 338.5 146 L 339.5 148 L 338.5 146 Z " /><path fill="rgb(252,252,252)" stroke="rgb(252,252,252)" stroke-width="1" opacity="1" d="M 113.5 148 L 112.5 150 L 113.5 148 Z " /><path fill="rgb(252,252,252)" stroke="rgb(252,252,252)" stroke-width="1" opacity="1" d="M 341.5 148 L 342.5 150 L 341.5 148 Z " /><path fill="rgb(252,252,252)" stroke="rgb(252,252,252)" stroke-width="1" opacity="1" d="M 424.5 149 L 428 149.5 L 424.5 150 L 424.5 149 Z " /><path fill="rgb(252,252,252)" stroke="rgb(252,252,252)" stroke-width="1" opacity="1" d="M 439.5 149 L 442 149.5 L 439.5 150 L 439.5 149 Z " /><path fill="rgb(252,252,252)" stroke="rgb(252,252,252)" stroke-width="1" opacity="1" d="M 344.5 150 L 345.5 152 L 344.5 150 Z " /><path fill="rgb(252,252,252)" stroke="rgb(252,252,252)" stroke-width="1" opacity="1" d="M 445.5 150 L 448 150.5 L 445.5 151 L 445.5 150 Z " /><path fill="rgb(252,252,252)" stroke="rgb(252,252,252)" stroke-width="1" opacity="1" d="M 109.5 151 L 108.5 153 L 109.5 151 Z " /><path fill="rgb(252,252,252)" stroke="rgb(252,252,252)" stroke-width="1" opacity="1" d="M 105.5 154 L 104.5 156 L 105.5 154 Z " /><path fill="rgb(252,252,252)" stroke="rgb(252,252,252)" stroke-width="1" opacity="1" d="M 102.5 156 L 101.5 158 L 102.5 156 Z " /><path fill="rgb(252,252,252)" stroke="rgb(252,252,252)" stroke-width="1" opacity="1" d="M 98.5 159 L 97.5 161 L 98.5 159 Z " /><path fill="rgb(252,252,252)" stroke="rgb(252,252,252)" stroke-width="1" opacity="1" d="M 468.5 160 L 475.5 168 L 468.5 160 Z " /><path fill="rgb(252,252,252)" stroke="rgb(252,252,252)" stroke-width="1" opacity="1" d="M 369.5 161 L 383 161.5 L 369.5 162 L 369.5 161 Z " /><path fill="rgb(252,252,252)" stroke="rgb(252,252,252)" stroke-width="1" opacity="1" d="M 94.5 162 L 93.5 164 L 94.5 162 Z " /><path fill="rgb(252,252,252)" stroke="rgb(252,252,252)" stroke-width="1" opacity="1" d="M 91.5 164 L 90.5 166 L 91.5 164 Z " /><path fill="rgb(252,252,252)" stroke="rgb(252,252,252)" stroke-width="1" opacity="1" d="M 87.5 167 L 86.5 169 L 87.5 167 Z " /><path fill="rgb(252,252,252)" stroke="rgb(252,252,252)" stroke-width="1" opacity="1" d="M 84.5 169 L 83.5 171 L 84.5 169 Z " /><path fill="rgb(252,252,252)" stroke="rgb(252,252,252)" stroke-width="1" opacity="1" d="M 477.5 170 L 478.5 172 L 477.5 170 Z " /><path fill="rgb(252,252,252)" stroke="rgb(252,252,252)" stroke-width="1" opacity="1" d="M 80.5 172 L 79.5 174 L 80.5 172 Z " /><path fill="rgb(252,252,252)" stroke="rgb(252,252,252)" stroke-width="1" opacity="1" d="M 479.5 173 L 480.5 175 L 479.5 173 Z " /><path fill="rgb(252,252,252)" stroke="rgb(252,252,252)" stroke-width="1" opacity="1" d="M 76.5 175 L 74.5 178 L 76.5 175 Z " /><path fill="rgb(252,252,252)" stroke="rgb(252,252,252)" stroke-width="1" opacity="1" d="M 71.5 179 L 70.5 181 L 71.5 179 Z " /><path fill="rgb(252,252,252)" stroke="rgb(252,252,252)" stroke-width="1" opacity="1" d="M 67.5 182 L 65.5 185 L 67.5 182 Z " /><path fill="rgb(252,252,252)" stroke="rgb(252,252,252)" stroke-width="1" opacity="1" d="M 62.5 186 L 59.5 190 L 62.5 186 Z " /><path fill="rgb(252,252,252)" stroke="rgb(252,252,252)" stroke-width="1" opacity="1" d="M 55.5 192 L 49.5 199 L 55.5 192 Z " /><path fill="rgb(252,252,252)" stroke="rgb(252,252,252)" stroke-width="1" opacity="1" d="M 490.5 201 L 491 203.5 L 490 203.5 L 490.5 201 Z " /><path fill="rgb(252,252,252)" stroke="rgb(252,252,252)" stroke-width="1" opacity="1" d="M 42.5 205 L 38.5 210 L 42.5 205 Z " /><path fill="rgb(252,252,252)" stroke="rgb(252,252,252)" stroke-width="1" opacity="1" d="M 491.5 207 L 492 210.5 L 491 210.5 L 491.5 207 Z " /><path fill="rgb(252,252,252)" stroke="rgb(252,252,252)" stroke-width="1" opacity="1" d="M 35.5 213 L 34.5 215 L 35.5 213 Z " /><path fill="rgb(252,252,252)" stroke="rgb(252,252,252)" stroke-width="1" opacity="1" d="M 32.5 217 L 31.5 219 L 32.5 217 Z " /><path fill="rgb(252,252,252)" stroke="rgb(252,252,252)" stroke-width="1" opacity="1" d="M 30.5 220 L 29.5 222 L 30.5 220 Z " /><path fill="rgb(252,252,252)" stroke="rgb(252,252,252)" stroke-width="1" opacity="1" d="M 492.5 220 L 493 226.5 L 492 226.5 L 492.5 220 Z " /><path fill="rgb(252,252,252)" stroke="rgb(252,252,252)" stroke-width="1" opacity="1" d="M 491.5 231 L 492 234.5 L 491 234.5 L 491.5 231 Z " /><path fill="rgb(252,252,252)" stroke="rgb(252,252,252)" stroke-width="1" opacity="1" d="M 490.5 238 L 491 240.5 L 490 240.5 L 490.5 238 Z " /><path fill="rgb(252,252,252)" stroke="rgb(252,252,252)" stroke-width="1" opacity="1" d="M 10.5 265 L 11 267.5 L 10 267.5 L 10.5 265 Z " /><path fill="rgb(252,252,252)" stroke="rgb(252,252,252)" stroke-width="1" opacity="1" d="M 9.5 272 L 10 276.5 L 9 276.5 L 9.5 272 Z " /><path fill="rgb(252,252,252)" stroke="rgb(252,252,252)" stroke-width="1" opacity="1" d="M 470.5 292 L 469.5 294 L 470.5 292 Z " /><path fill="rgb(252,252,252)" stroke="rgb(252,252,252)" stroke-width="1" opacity="1" d="M 9.5 296 L 10 301.5 L 9 301.5 L 9.5 296 Z " /><path fill="rgb(252,252,252)" stroke="rgb(252,252,252)" stroke-width="1" opacity="1" d="M 464.5 302 L 463.5 304 L 464.5 302 Z " /><path fill="rgb(252,252,252)" stroke="rgb(252,252,252)" stroke-width="1" opacity="1" d="M 10.5 305 L 11 308.5 L 10 308.5 L 10.5 305 Z " /><path fill="rgb(252,252,252)" stroke="rgb(252,252,252)" stroke-width="1" opacity="1" d="M 461.5 306 L 460.5 308 L 461.5 306 Z " /><path fill="rgb(252,252,252)" stroke="rgb(252,252,252)" stroke-width="1" opacity="1" d="M 459.5 309 L 458.5 311 L 459.5 309 Z " /><path fill="rgb(252,252,252)" stroke="rgb(252,252,252)" stroke-width="1" opacity="1" d="M 11.5 311 L 12 313.5 L 11 313.5 L 11.5 311 Z " /><path fill="rgb(252,252,252)" stroke="rgb(252,252,252)" stroke-width="1" opacity="1" d="M 456.5 313 L 454.5 316 L 456.5 313 Z " /><path fill="rgb(252,252,252)" stroke="rgb(252,252,252)" stroke-width="1" opacity="1" d="M 451.5 319 L 449.5 322 L 451.5 319 Z " /><path fill="rgb(252,252,252)" stroke="rgb(252,252,252)" stroke-width="1" opacity="1" d="M 447.5 324 L 441.5 331 L 447.5 324 Z " /><path fill="rgb(252,252,252)" stroke="rgb(252,252,252)" stroke-width="1" opacity="1" d="M 429.5 342 L 425.5 347 L 429.5 342 Z " /><path fill="rgb(252,252,252)" stroke="rgb(252,252,252)" stroke-width="1" opacity="1" d="M 22.5 343 L 23.5 345 L 22.5 343 Z " /><path fill="rgb(252,252,252)" stroke="rgb(252,252,252)" stroke-width="1" opacity="1" d="M 25.5 348 L 26.5 350 L 25.5 348 Z " /><path fill="rgb(252,252,252)" stroke="rgb(252,252,252)" stroke-width="1" opacity="1" d="M 421.5 349 L 419.5 352 L 421.5 349 Z " /><path fill="rgb(252,252,252)" stroke="rgb(252,252,252)" stroke-width="1" opacity="1" d="M 27.5 351 L 28.5 353 L 27.5 351 Z " /><path fill="rgb(252,252,252)" stroke="rgb(252,252,252)" stroke-width="1" opacity="1" d="M 416.5 353 L 414.5 356 L 416.5 353 Z " /><path fill="rgb(252,252,252)" stroke="rgb(252,252,252)" stroke-width="1" opacity="1" d="M 411.5 357 L 410.5 359 L 411.5 357 Z " /><path fill="rgb(252,252,252)" stroke="rgb(252,252,252)" stroke-width="1" opacity="1" d="M 32.5 358 L 33.5 360 L 32.5 358 Z " /><path fill="rgb(252,252,252)" stroke="rgb(252,252,252)" stroke-width="1" opacity="1" d="M 407.5 360 L 406.5 362 L 407.5 360 Z " /><path fill="rgb(252,252,252)" stroke="rgb(252,252,252)" stroke-width="1" opacity="1" d="M 35.5 362 L 37.5 365 L 35.5 362 Z " /><path fill="rgb(252,252,252)" stroke="rgb(252,252,252)" stroke-width="1" opacity="1" d="M 399.5 365 L 398.5 367 L 399.5 365 Z " /><path fill="rgb(252,252,252)" stroke="rgb(252,252,252)" stroke-width="1" opacity="1" d="M 39.5 367 L 44.5 373 L 39.5 367 Z " /><path fill="rgb(252,252,252)" stroke="rgb(252,252,252)" stroke-width="1" opacity="1" d="M 385.5 373 L 384.5 375 L 385.5 373 Z " /><path fill="rgb(252,252,252)" stroke="rgb(252,252,252)" stroke-width="1" opacity="1" d="M 52.5 380 L 54.5 383 L 52.5 380 Z " /><path fill="rgb(252,252,252)" stroke="rgb(252,252,252)" stroke-width="1" opacity="1" d="M 58.5 385 L 60.5 388 L 58.5 385 Z " /><path fill="rgb(252,252,252)" stroke="rgb(252,252,252)" stroke-width="1" opacity="1" d="M 63.5 389 L 64.5 391 L 63.5 389 Z " /><path fill="rgb(252,252,252)" stroke="rgb(252,252,252)" stroke-width="1" opacity="1" d="M 66.5 391 L 67.5 393 L 66.5 391 Z " /><path fill="rgb(252,252,252)" stroke="rgb(252,252,252)" stroke-width="1" opacity="1" d="M 332.5 392 L 335 392.5 L 332.5 393 L 332.5 392 Z " /><path fill="rgb(252,252,252)" stroke="rgb(252,252,252)" stroke-width="1" opacity="1" d="M 69.5 393 L 70.5 395 L 69.5 393 Z " /><path fill="rgb(252,252,252)" stroke="rgb(252,252,252)" stroke-width="1" opacity="1" d="M 321.5 394 L 324 394.5 L 321.5 395 L 321.5 394 Z " /><path fill="rgb(252,252,252)" stroke="rgb(252,252,252)" stroke-width="1" opacity="1" d="M 72.5 395 L 73.5 397 L 72.5 395 Z " /><path fill="rgb(252,252,252)" stroke="rgb(252,252,252)" stroke-width="1" opacity="1" d="M 314.5 395 L 318 395.5 L 314.5 396 L 314.5 395 Z " /><path fill="rgb(252,252,252)" stroke="rgb(252,252,252)" stroke-width="1" opacity="1" d="M 198.5 396 L 205 396.5 L 198.5 397 L 198.5 396 Z " /><path fill="rgb(252,252,252)" stroke="rgb(252,252,252)" stroke-width="1" opacity="1" d="M 223.5 396 L 241 396.5 L 223.5 397 L 223.5 396 Z " /><path fill="rgb(252,252,252)" stroke="rgb(252,252,252)" stroke-width="1" opacity="1" d="M 305.5 396 L 310 396.5 L 305.5 397 L 305.5 396 Z " /><path fill="rgb(252,252,252)" stroke="rgb(252,252,252)" stroke-width="1" opacity="1" d="M 188.5 397 L 193 397.5 L 188.5 398 L 188.5 397 Z " /><path fill="rgb(252,252,252)" stroke="rgb(252,252,252)" stroke-width="1" opacity="1" d="M 252.5 397 L 267 397.5 L 252.5 398 L 252.5 397 Z " /><path fill="rgb(252,252,252)" stroke="rgb(252,252,252)" stroke-width="1" opacity="1" d="M 289.5 397 L 298 397.5 L 289.5 398 L 289.5 397 Z " /><path fill="rgb(252,252,252)" stroke="rgb(252,252,252)" stroke-width="1" opacity="1" d="M 162.5 402 L 165 402.5 L 162.5 403 L 162.5 402 Z " /><path fill="rgb(252,252,252)" stroke="rgb(252,252,252)" stroke-width="1" opacity="1" d="M 153.5 404 L 156 404.5 L 153.5 405 L 153.5 404 Z " /><path fill="rgb(252,252,252)" stroke="rgb(252,252,252)" stroke-width="1" opacity="1" d="M 105.5 408 L 108 408.5 L 105.5 409 L 105.5 408 Z " /><path fill="rgb(252,252,252)" stroke="rgb(252,252,252)" stroke-width="1" opacity="1" d="M 134.5 408 L 137 408.5 L 134.5 409 L 134.5 408 Z " /><path fill="rgb(252,252,252)" stroke="rgb(252,252,252)" stroke-width="1" opacity="1" d="M 111.5 409 L 118 409.5 L 111.5 410 L 111.5 409 Z " /><path fill="rgb(252,252,252)" stroke="rgb(252,252,252)" stroke-width="1" opacity="1" d="M 123.5 409 L 130 409.5 L 123.5 410 L 123.5 409 Z " /><path fill="rgb(245,245,245)" stroke="rgb(245,245,245)" stroke-width="1" opacity="1" d="M 205.5 69 L 228.5 69 Q 230 71.5 235.5 70 Q 253.1 73.9 266.5 82 L 277.5 90 Q 306.2 121.3 339.5 148 L 362.5 160 L 369.5 162 L 382.5 162 L 392.5 160 L 422.5 150 L 438.5 149 L 452.5 152 L 463.5 157 L 477 169.5 L 486 185.5 L 490 198.5 L 491 210.5 L 492 211.5 L 492 230.5 L 489 247.5 L 483 266.5 L 471 291.5 Q 454.2 320.2 430.5 342 Q 402.5 369 362.5 384 L 336.5 392 L 320.5 395 L 305.5 396 L 304.5 397 L 289.5 397 L 288.5 398 L 267.5 398 L 266.5 397 L 241.5 397 L 240.5 396 L 198.5 396 L 197.5 397 L 188.5 397 L 162.5 402 L 139.5 408 L 118.5 410 L 117.5 409 L 102.5 408 L 84.5 402 Q 61.4 391.1 45 373.5 Q 27.8 355.7 17 331.5 L 10 304.5 L 9 277.5 L 10 276.5 L 11 263.5 L 15 251.5 L 26 227.5 Q 35.2 211.2 48.5 199 L 69.5 181 L 120.5 144 L 130 135.5 L 147 103.5 L 162.5 86 L 187.5 73 L 205.5 69 Z " /><path fill="rgb(254,254,254)" stroke="rgb(254,254,254)" stroke-width="1" opacity="1" d="M 291.5 103 L 299.5 112 L 291.5 103 Z " /><path fill="rgb(254,254,254)" stroke="rgb(254,254,254)" stroke-width="1" opacity="1" d="M 316.5 127 L 318.5 130 L 316.5 127 Z " /><path fill="rgb(254,254,254)" stroke="rgb(254,254,254)" stroke-width="1" opacity="1" d="M 124.5 139 L 123.5 141 L 124.5 139 Z " /><path fill="rgb(254,254,254)" stroke="rgb(254,254,254)" stroke-width="1" opacity="1" d="M 37.5 210 L 36.5 212 L 37.5 210 Z " /><path fill="rgb(254,254,254)" stroke="rgb(254,254,254)" stroke-width="1" opacity="1" d="M 492.5 216 L 493 219.5 L 492 219.5 L 492.5 216 Z " /><path fill="rgb(254,254,254)" stroke="rgb(254,254,254)" stroke-width="1" opacity="1" d="M 453.5 317 L 452.5 319 L 453.5 317 Z " /><path fill="rgb(254,254,254)" stroke="rgb(254,254,254)" stroke-width="1" opacity="1" d="M 438.5 334 L 435.5 338 L 438.5 334 Z " /><path fill="rgb(254,254,254)" stroke="rgb(254,254,254)" stroke-width="1" opacity="1" d="M 55.5 383 L 56.5 385 L 55.5 383 Z " /><path fill="rgb(254,254,254)" stroke="rgb(254,254,254)" stroke-width="1" opacity="1" d="M 205.5 396 L 208 396.5 L 205.5 397 L 205.5 396 Z " /><path fill="rgb(254,254,254)" stroke="rgb(254,254,254)" stroke-width="1" opacity="1" d="M 217.5 396 L 223 396.5 L 217.5 397 L 217.5 396 Z " /><path fill="rgb(255,255,255)" stroke="rgb(255,255,255)" stroke-width="1" opacity="1" d="M 0 0 L 500 0 L 500 500 L 0 500 L 0 0 Z M 210 68 L 189 72 Q 173 77 162 86 Q 152 94 145 106 L 130 135 L 120 144 Q 86 166 57 191 Q 39 205 27 225 L 14 253 L 9 272 L 9 302 L 13 322 Q 21 348 38 367 Q 53 385 74 397 L 91 405 L 112 410 L 138 409 L 186 398 L 208 397 L 209 396 L 217 396 L 218 397 L 250 397 L 251 398 L 299 398 L 300 397 L 311 397 L 312 396 L 319 396 L 335 393 L 350 389 Q 402 373 436 338 Q 459 316 475 286 L 487 257 L 493 228 Q 494 189 477 169 Q 465 153 443 149 L 425 149 L 420 150 L 398 158 L 385 161 Q 372 163 365 160 L 341 148 Q 307 122 279 90 L 263 79 L 243 71 L 233 69 L 226 69 L 225 68 L 210 68 Z " /></svg>