<svg width="700" height="700" version="1.1" xmlns="http://www.w3.org/2000/svg" desc="Created with imagetracer.js version 1.2.6" ><path fill="rgb(252,252,252)" stroke="rgb(252,252,252)" stroke-width="1" opacity="1" d="M 293.5 106 L 311 106.5 L 293.5 107 L 293.5 106 Z " /><path fill="rgb(252,252,252)" stroke="rgb(252,252,252)" stroke-width="1" opacity="1" d="M 284.5 107 L 288 107.5 L 284.5 108 L 284.5 107 Z " /><path fill="rgb(252,252,252)" stroke="rgb(252,252,252)" stroke-width="1" opacity="1" d="M 318.5 107 L 321 107.5 L 318.5 108 L 318.5 107 Z " /><path fill="rgb(252,252,252)" stroke="rgb(252,252,252)" stroke-width="1" opacity="1" d="M 278.5 108 L 281 108.5 L 278.5 109 L 278.5 108 Z " /><path fill="rgb(252,252,252)" stroke="rgb(252,252,252)" stroke-width="1" opacity="1" d="M 324.5 108 L 327 108.5 L 324.5 109 L 324.5 108 Z " /><path fill="rgb(252,252,252)" stroke="rgb(252,252,252)" stroke-width="1" opacity="1" d="M 330.5 109 L 333 109.5 L 330.5 110 L 330.5 109 Z " /><path fill="rgb(252,252,252)" stroke="rgb(252,252,252)" stroke-width="1" opacity="1" d="M 374.5 126 L 375.5 128 L 374.5 126 Z " /><path fill="rgb(252,252,252)" stroke="rgb(252,252,252)" stroke-width="1" opacity="1" d="M 377.5 128 L 378.5 130 L 377.5 128 Z " /><path fill="rgb(252,252,252)" stroke="rgb(252,252,252)" stroke-width="1" opacity="1" d="M 224.5 131 L 223.5 133 L 224.5 131 Z " /><path fill="rgb(252,252,252)" stroke="rgb(252,252,252)" stroke-width="1" opacity="1" d="M 384.5 133 L 385.5 135 L 384.5 133 Z " /><path fill="rgb(252,252,252)" stroke="rgb(252,252,252)" stroke-width="1" opacity="1" d="M 388.5 136 L 390.5 139 L 388.5 136 Z " /><path fill="rgb(252,252,252)" stroke="rgb(252,252,252)" stroke-width="1" opacity="1" d="M 393.5 140 L 403.5 151 L 393.5 140 Z " /><path fill="rgb(252,252,252)" stroke="rgb(252,252,252)" stroke-width="1" opacity="1" d="M 211.5 144 L 209.5 147 L 211.5 144 Z " /><path fill="rgb(252,252,252)" stroke="rgb(252,252,252)" stroke-width="1" opacity="1" d="M 207.5 149 L 206.5 151 L 207.5 149 Z " /><path fill="rgb(252,252,252)" stroke="rgb(252,252,252)" stroke-width="1" opacity="1" d="M 205.5 152 L 204.5 154 L 205.5 152 Z " /><path fill="rgb(252,252,252)" stroke="rgb(252,252,252)" stroke-width="1" opacity="1" d="M 411.5 159 L 421.5 170 L 411.5 159 Z " /><path fill="rgb(252,252,252)" stroke="rgb(252,252,252)" stroke-width="1" opacity="1" d="M 199.5 161 L 198.5 163 L 199.5 161 Z " /><path fill="rgb(252,252,252)" stroke="rgb(252,252,252)" stroke-width="1" opacity="1" d="M 195.5 168 L 194.5 170 L 195.5 168 Z " /><path fill="rgb(252,252,252)" stroke="rgb(252,252,252)" stroke-width="1" opacity="1" d="M 428.5 175 L 441.5 189 L 428.5 175 Z " /><path fill="rgb(252,252,252)" stroke="rgb(252,252,252)" stroke-width="1" opacity="1" d="M 450.5 196 L 454.5 201 L 450.5 196 Z " /><path fill="rgb(252,252,252)" stroke="rgb(252,252,252)" stroke-width="1" opacity="1" d="M 180.5 197 L 179.5 199 L 180.5 197 Z " /><path fill="rgb(252,252,252)" stroke="rgb(252,252,252)" stroke-width="1" opacity="1" d="M 178.5 200 L 176.5 203 L 178.5 200 Z " /><path fill="rgb(252,252,252)" stroke="rgb(252,252,252)" stroke-width="1" opacity="1" d="M 459.5 204 L 462.5 208 L 459.5 204 Z " /><path fill="rgb(252,252,252)" stroke="rgb(252,252,252)" stroke-width="1" opacity="1" d="M 172.5 206 L 170.5 209 L 172.5 206 Z " /><path fill="rgb(252,252,252)" stroke="rgb(252,252,252)" stroke-width="1" opacity="1" d="M 466.5 210 L 468.5 213 L 466.5 210 Z " /><path fill="rgb(252,252,252)" stroke="rgb(252,252,252)" stroke-width="1" opacity="1" d="M 166.5 211 L 164.5 214 L 166.5 211 Z " /><path fill="rgb(252,252,252)" stroke="rgb(252,252,252)" stroke-width="1" opacity="1" d="M 471.5 214 L 472.5 216 L 471.5 214 Z " /><path fill="rgb(252,252,252)" stroke="rgb(252,252,252)" stroke-width="1" opacity="1" d="M 161.5 215 L 160.5 217 L 161.5 215 Z " /><path fill="rgb(252,252,252)" stroke="rgb(252,252,252)" stroke-width="1" opacity="1" d="M 475.5 217 L 476.5 219 L 475.5 217 Z " /><path fill="rgb(252,252,252)" stroke="rgb(252,252,252)" stroke-width="1" opacity="1" d="M 156.5 219 L 155.5 221 L 156.5 219 Z " /><path fill="rgb(252,252,252)" stroke="rgb(252,252,252)" stroke-width="1" opacity="1" d="M 478.5 219 L 479.5 221 L 478.5 219 Z " /><path fill="rgb(252,252,252)" stroke="rgb(252,252,252)" stroke-width="1" opacity="1" d="M 152.5 222 L 151.5 224 L 152.5 222 Z " /><path fill="rgb(252,252,252)" stroke="rgb(252,252,252)" stroke-width="1" opacity="1" d="M 607.5 222 L 621 222.5 L 607.5 223 L 607.5 222 Z " /><path fill="rgb(252,252,252)" stroke="rgb(252,252,252)" stroke-width="1" opacity="1" d="M 484.5 223 L 485.5 225 L 484.5 223 Z " /><path fill="rgb(252,252,252)" stroke="rgb(252,252,252)" stroke-width="1" opacity="1" d="M 600.5 223 L 603 223.5 L 600.5 224 L 600.5 223 Z " /><path fill="rgb(252,252,252)" stroke="rgb(252,252,252)" stroke-width="1" opacity="1" d="M 625.5 223 L 628 223.5 L 625.5 224 L 625.5 223 Z " /><path fill="rgb(252,252,252)" stroke="rgb(252,252,252)" stroke-width="1" opacity="1" d="M 148.5 225 L 147.5 227 L 148.5 225 Z " /><path fill="rgb(252,252,252)" stroke="rgb(252,252,252)" stroke-width="1" opacity="1" d="M 487.5 225 L 488.5 227 L 487.5 225 Z " /><path fill="rgb(252,252,252)" stroke="rgb(252,252,252)" stroke-width="1" opacity="1" d="M 144.5 228 L 143.5 230 L 144.5 228 Z " /><path fill="rgb(252,252,252)" stroke="rgb(252,252,252)" stroke-width="1" opacity="1" d="M 140.5 231 L 139.5 233 L 140.5 231 Z " /><path fill="rgb(252,252,252)" stroke="rgb(252,252,252)" stroke-width="1" opacity="1" d="M 654.5 232 L 655.5 234 L 654.5 232 Z " /><path fill="rgb(252,252,252)" stroke="rgb(252,252,252)" stroke-width="1" opacity="1" d="M 137.5 233 L 136.5 235 L 137.5 233 Z " /><path fill="rgb(252,252,252)" stroke="rgb(252,252,252)" stroke-width="1" opacity="1" d="M 133.5 236 L 132.5 238 L 133.5 236 Z " /><path fill="rgb(252,252,252)" stroke="rgb(252,252,252)" stroke-width="1" opacity="1" d="M 543.5 239 L 547 239.5 L 543.5 240 L 543.5 239 Z " /><path fill="rgb(252,252,252)" stroke="rgb(252,252,252)" stroke-width="1" opacity="1" d="M 664.5 239 L 673.5 249 L 664.5 239 Z " /><path fill="rgb(252,252,252)" stroke="rgb(252,252,252)" stroke-width="1" opacity="1" d="M 523.5 240 L 540 240.5 L 523.5 241 L 523.5 240 Z " /><path fill="rgb(252,252,252)" stroke="rgb(252,252,252)" stroke-width="1" opacity="1" d="M 126.5 241 L 125.5 243 L 126.5 241 Z " /><path fill="rgb(252,252,252)" stroke="rgb(252,252,252)" stroke-width="1" opacity="1" d="M 122.5 244 L 121.5 246 L 122.5 244 Z " /><path fill="rgb(252,252,252)" stroke="rgb(252,252,252)" stroke-width="1" opacity="1" d="M 119.5 246 L 118.5 248 L 119.5 246 Z " /><path fill="rgb(252,252,252)" stroke="rgb(252,252,252)" stroke-width="1" opacity="1" d="M 115.5 249 L 114.5 251 L 115.5 249 Z " /><path fill="rgb(252,252,252)" stroke="rgb(252,252,252)" stroke-width="1" opacity="1" d="M 111.5 252 L 110.5 254 L 111.5 252 Z " /><path fill="rgb(252,252,252)" stroke="rgb(252,252,252)" stroke-width="1" opacity="1" d="M 676.5 252 L 677.5 254 L 676.5 252 Z " /><path fill="rgb(252,252,252)" stroke="rgb(252,252,252)" stroke-width="1" opacity="1" d="M 108.5 254 L 107.5 256 L 108.5 254 Z " /><path fill="rgb(252,252,252)" stroke="rgb(252,252,252)" stroke-width="1" opacity="1" d="M 678.5 255 L 679.5 257 L 678.5 255 Z " /><path fill="rgb(252,252,252)" stroke="rgb(252,252,252)" stroke-width="1" opacity="1" d="M 104.5 257 L 103.5 259 L 104.5 257 Z " /><path fill="rgb(252,252,252)" stroke="rgb(252,252,252)" stroke-width="1" opacity="1" d="M 680.5 258 L 681.5 260 L 680.5 258 Z " /><path fill="rgb(252,252,252)" stroke="rgb(252,252,252)" stroke-width="1" opacity="1" d="M 100.5 260 L 99.5 262 L 100.5 260 Z " /><path fill="rgb(252,252,252)" stroke="rgb(252,252,252)" stroke-width="1" opacity="1" d="M 96.5 263 L 94.5 266 L 96.5 263 Z " /><path fill="rgb(252,252,252)" stroke="rgb(252,252,252)" stroke-width="1" opacity="1" d="M 91.5 267 L 90.5 269 L 91.5 267 Z " /><path fill="rgb(252,252,252)" stroke="rgb(252,252,252)" stroke-width="1" opacity="1" d="M 87.5 270 L 85.5 273 L 87.5 270 Z " /><path fill="rgb(252,252,252)" stroke="rgb(252,252,252)" stroke-width="1" opacity="1" d="M 81.5 275 L 79.5 278 L 81.5 275 Z " /><path fill="rgb(252,252,252)" stroke="rgb(252,252,252)" stroke-width="1" opacity="1" d="M 75.5 280 L 73.5 283 L 75.5 280 Z " /><path fill="rgb(252,252,252)" stroke="rgb(252,252,252)" stroke-width="1" opacity="1" d="M 68.5 286 L 61.5 294 L 68.5 286 Z " /><path fill="rgb(252,252,252)" stroke="rgb(252,252,252)" stroke-width="1" opacity="1" d="M 693.5 288 L 694 290.5 L 693 290.5 L 693.5 288 Z " /><path fill="rgb(252,252,252)" stroke="rgb(252,252,252)" stroke-width="1" opacity="1" d="M 695.5 297 L 696 299.5 L 695 299.5 L 695.5 297 Z " /><path fill="rgb(252,252,252)" stroke="rgb(252,252,252)" stroke-width="1" opacity="1" d="M 51.5 303 L 47.5 308 L 51.5 303 Z " /><path fill="rgb(252,252,252)" stroke="rgb(252,252,252)" stroke-width="1" opacity="1" d="M 696.5 303 L 697 305.5 L 696 305.5 L 696.5 303 Z " /><path fill="rgb(252,252,252)" stroke="rgb(252,252,252)" stroke-width="1" opacity="1" d="M 44.5 311 L 42.5 314 L 44.5 311 Z " /><path fill="rgb(252,252,252)" stroke="rgb(252,252,252)" stroke-width="1" opacity="1" d="M 697.5 311 L 698 315.5 L 697 315.5 L 697.5 311 Z " /><path fill="rgb(252,252,252)" stroke="rgb(252,252,252)" stroke-width="1" opacity="1" d="M 40.5 316 L 38.5 319 L 40.5 316 Z " /><path fill="rgb(252,252,252)" stroke="rgb(252,252,252)" stroke-width="1" opacity="1" d="M 37.5 320 L 36.5 322 L 37.5 320 Z " /><path fill="rgb(252,252,252)" stroke="rgb(252,252,252)" stroke-width="1" opacity="1" d="M 35.5 323 L 34.5 325 L 35.5 323 Z " /><path fill="rgb(252,252,252)" stroke="rgb(252,252,252)" stroke-width="1" opacity="1" d="M 697.5 338 L 698 341.5 L 697 341.5 L 697.5 338 Z " /><path fill="rgb(252,252,252)" stroke="rgb(252,252,252)" stroke-width="1" opacity="1" d="M 696.5 346 L 697 348.5 L 696 348.5 L 696.5 346 Z " /><path fill="rgb(252,252,252)" stroke="rgb(252,252,252)" stroke-width="1" opacity="1" d="M 4.5 398 L 5 402.5 L 4 402.5 L 4.5 398 Z " /><path fill="rgb(252,252,252)" stroke="rgb(252,252,252)" stroke-width="1" opacity="1" d="M 3.5 409 L 4 431.5 L 3 431.5 L 3.5 409 Z " /><path fill="rgb(252,252,252)" stroke="rgb(252,252,252)" stroke-width="1" opacity="1" d="M 664.5 432 L 663.5 434 L 664.5 432 Z " /><path fill="rgb(252,252,252)" stroke="rgb(252,252,252)" stroke-width="1" opacity="1" d="M 661.5 437 L 660.5 439 L 661.5 437 Z " /><path fill="rgb(252,252,252)" stroke="rgb(252,252,252)" stroke-width="1" opacity="1" d="M 4.5 438 L 5 442.5 L 4 442.5 L 4.5 438 Z " /><path fill="rgb(252,252,252)" stroke="rgb(252,252,252)" stroke-width="1" opacity="1" d="M 658.5 442 L 657.5 444 L 658.5 442 Z " /><path fill="rgb(252,252,252)" stroke="rgb(252,252,252)" stroke-width="1" opacity="1" d="M 655.5 446 L 654.5 448 L 655.5 446 Z " /><path fill="rgb(252,252,252)" stroke="rgb(252,252,252)" stroke-width="1" opacity="1" d="M 5.5 447 L 6 449.5 L 5 449.5 L 5.5 447 Z " /><path fill="rgb(252,252,252)" stroke="rgb(252,252,252)" stroke-width="1" opacity="1" d="M 653.5 449 L 652.5 451 L 653.5 449 Z " /><path fill="rgb(252,252,252)" stroke="rgb(252,252,252)" stroke-width="1" opacity="1" d="M 650.5 453 L 649.5 455 L 650.5 453 Z " /><path fill="rgb(252,252,252)" stroke="rgb(252,252,252)" stroke-width="1" opacity="1" d="M 647.5 457 L 645.5 460 L 647.5 457 Z " /><path fill="rgb(252,252,252)" stroke="rgb(252,252,252)" stroke-width="1" opacity="1" d="M 643.5 462 L 641.5 465 L 643.5 462 Z " /><path fill="rgb(252,252,252)" stroke="rgb(252,252,252)" stroke-width="1" opacity="1" d="M 639.5 467 L 637.5 470 L 639.5 467 Z " /><path fill="rgb(252,252,252)" stroke="rgb(252,252,252)" stroke-width="1" opacity="1" d="M 634.5 473 L 630.5 478 L 634.5 473 Z " /><path fill="rgb(252,252,252)" stroke="rgb(252,252,252)" stroke-width="1" opacity="1" d="M 625.5 483 L 609.5 500 L 625.5 483 Z " /><path fill="rgb(252,252,252)" stroke="rgb(252,252,252)" stroke-width="1" opacity="1" d="M 603.5 504 L 599.5 509 L 603.5 504 Z " /><path fill="rgb(252,252,252)" stroke="rgb(252,252,252)" stroke-width="1" opacity="1" d="M 27.5 509 L 28.5 511 L 27.5 509 Z " /><path fill="rgb(252,252,252)" stroke="rgb(252,252,252)" stroke-width="1" opacity="1" d="M 595.5 511 L 593.5 514 L 595.5 511 Z " /><path fill="rgb(252,252,252)" stroke="rgb(252,252,252)" stroke-width="1" opacity="1" d="M 29.5 512 L 30.5 514 L 29.5 512 Z " /><path fill="rgb(252,252,252)" stroke="rgb(252,252,252)" stroke-width="1" opacity="1" d="M 31.5 515 L 32.5 517 L 31.5 515 Z " /><path fill="rgb(252,252,252)" stroke="rgb(252,252,252)" stroke-width="1" opacity="1" d="M 590.5 515 L 589.5 517 L 590.5 515 Z " /><path fill="rgb(252,252,252)" stroke="rgb(252,252,252)" stroke-width="1" opacity="1" d="M 586.5 518 L 585.5 520 L 586.5 518 Z " /><path fill="rgb(252,252,252)" stroke="rgb(252,252,252)" stroke-width="1" opacity="1" d="M 34.5 519 L 35.5 521 L 34.5 519 Z " /><path fill="rgb(252,252,252)" stroke="rgb(252,252,252)" stroke-width="1" opacity="1" d="M 582.5 521 L 581.5 523 L 582.5 521 Z " /><path fill="rgb(252,252,252)" stroke="rgb(252,252,252)" stroke-width="1" opacity="1" d="M 36.5 522 L 37.5 524 L 36.5 522 Z " /><path fill="rgb(252,252,252)" stroke="rgb(252,252,252)" stroke-width="1" opacity="1" d="M 578.5 524 L 577.5 526 L 578.5 524 Z " /><path fill="rgb(252,252,252)" stroke="rgb(252,252,252)" stroke-width="1" opacity="1" d="M 39.5 526 L 40.5 528 L 39.5 526 Z " /><path fill="rgb(252,252,252)" stroke="rgb(252,252,252)" stroke-width="1" opacity="1" d="M 575.5 526 L 574.5 528 L 575.5 526 Z " /><path fill="rgb(252,252,252)" stroke="rgb(252,252,252)" stroke-width="1" opacity="1" d="M 572.5 528 L 571.5 530 L 572.5 528 Z " /><path fill="rgb(252,252,252)" stroke="rgb(252,252,252)" stroke-width="1" opacity="1" d="M 42.5 530 L 44.5 533 L 42.5 530 Z " /><path fill="rgb(252,252,252)" stroke="rgb(252,252,252)" stroke-width="1" opacity="1" d="M 569.5 530 L 568.5 532 L 569.5 530 Z " /><path fill="rgb(252,252,252)" stroke="rgb(252,252,252)" stroke-width="1" opacity="1" d="M 566.5 532 L 565.5 534 L 566.5 532 Z " /><path fill="rgb(252,252,252)" stroke="rgb(252,252,252)" stroke-width="1" opacity="1" d="M 563.5 534 L 562.5 536 L 563.5 534 Z " /><path fill="rgb(252,252,252)" stroke="rgb(252,252,252)" stroke-width="1" opacity="1" d="M 46.5 535 L 49.5 539 L 46.5 535 Z " /><path fill="rgb(252,252,252)" stroke="rgb(252,252,252)" stroke-width="1" opacity="1" d="M 558.5 537 L 557.5 539 L 558.5 537 Z " /><path fill="rgb(252,252,252)" stroke="rgb(252,252,252)" stroke-width="1" opacity="1" d="M 56.5 546 L 59.5 550 L 56.5 546 Z " /><path fill="rgb(252,252,252)" stroke="rgb(252,252,252)" stroke-width="1" opacity="1" d="M 67.5 556 L 71.5 561 L 67.5 556 Z " /><path fill="rgb(252,252,252)" stroke="rgb(252,252,252)" stroke-width="1" opacity="1" d="M 74.5 562 L 76.5 565 L 74.5 562 Z " /><path fill="rgb(252,252,252)" stroke="rgb(252,252,252)" stroke-width="1" opacity="1" d="M 79.5 566 L 80.5 568 L 79.5 566 Z " /><path fill="rgb(252,252,252)" stroke="rgb(252,252,252)" stroke-width="1" opacity="1" d="M 86.5 571 L 87.5 573 L 86.5 571 Z " /><path fill="rgb(252,252,252)" stroke="rgb(252,252,252)" stroke-width="1" opacity="1" d="M 471.5 571 L 474 571.5 L 471.5 572 L 471.5 571 Z " /><path fill="rgb(252,252,252)" stroke="rgb(252,252,252)" stroke-width="1" opacity="1" d="M 89.5 573 L 90.5 575 L 89.5 573 Z " /><path fill="rgb(252,252,252)" stroke="rgb(252,252,252)" stroke-width="1" opacity="1" d="M 456.5 574 L 459 574.5 L 456.5 575 L 456.5 574 Z " /><path fill="rgb(252,252,252)" stroke="rgb(252,252,252)" stroke-width="1" opacity="1" d="M 451.5 575 L 454 575.5 L 451.5 576 L 451.5 575 Z " /><path fill="rgb(252,252,252)" stroke="rgb(252,252,252)" stroke-width="1" opacity="1" d="M 94.5 576 L 95.5 578 L 94.5 576 Z " /><path fill="rgb(252,252,252)" stroke="rgb(252,252,252)" stroke-width="1" opacity="1" d="M 444.5 576 L 447 576.5 L 444.5 577 L 444.5 576 Z " /><path fill="rgb(252,252,252)" stroke="rgb(252,252,252)" stroke-width="1" opacity="1" d="M 286.5 577 L 315 577.5 L 286.5 578 L 286.5 577 Z " /><path fill="rgb(252,252,252)" stroke="rgb(252,252,252)" stroke-width="1" opacity="1" d="M 435.5 577 L 440 577.5 L 435.5 578 L 435.5 577 Z " /><path fill="rgb(252,252,252)" stroke="rgb(252,252,252)" stroke-width="1" opacity="1" d="M 271.5 578 L 277 578.5 L 271.5 579 L 271.5 578 Z " /><path fill="rgb(252,252,252)" stroke="rgb(252,252,252)" stroke-width="1" opacity="1" d="M 328.5 578 L 339 578.5 L 328.5 579 L 328.5 578 Z " /><path fill="rgb(252,252,252)" stroke="rgb(252,252,252)" stroke-width="1" opacity="1" d="M 425.5 578 L 430 578.5 L 425.5 579 L 425.5 578 Z " /><path fill="rgb(252,252,252)" stroke="rgb(252,252,252)" stroke-width="1" opacity="1" d="M 263.5 579 L 267 579.5 L 263.5 580 L 263.5 579 Z " /><path fill="rgb(252,252,252)" stroke="rgb(252,252,252)" stroke-width="1" opacity="1" d="M 349.5 579 L 365 579.5 L 349.5 580 L 349.5 579 Z " /><path fill="rgb(252,252,252)" stroke="rgb(252,252,252)" stroke-width="1" opacity="1" d="M 413.5 579 L 420 579.5 L 413.5 580 L 413.5 579 Z " /><path fill="rgb(252,252,252)" stroke="rgb(252,252,252)" stroke-width="1" opacity="1" d="M 256.5 580 L 259 580.5 L 256.5 581 L 256.5 580 Z " /><path fill="rgb(252,252,252)" stroke="rgb(252,252,252)" stroke-width="1" opacity="1" d="M 389.5 580 L 395 580.5 L 389.5 581 L 389.5 580 Z " /><path fill="rgb(252,252,252)" stroke="rgb(252,252,252)" stroke-width="1" opacity="1" d="M 250.5 581 L 253 581.5 L 250.5 582 L 250.5 581 Z " /><path fill="rgb(252,252,252)" stroke="rgb(252,252,252)" stroke-width="1" opacity="1" d="M 230.5 585 L 233 585.5 L 230.5 586 L 230.5 585 Z " /><path fill="rgb(252,252,252)" stroke="rgb(252,252,252)" stroke-width="1" opacity="1" d="M 221.5 587 L 224 587.5 L 221.5 588 L 221.5 587 Z " /><path fill="rgb(252,252,252)" stroke="rgb(252,252,252)" stroke-width="1" opacity="1" d="M 199.5 592 L 202 592.5 L 199.5 593 L 199.5 592 Z " /><path fill="rgb(252,252,252)" stroke="rgb(252,252,252)" stroke-width="1" opacity="1" d="M 136.5 594 L 139 594.5 L 136.5 595 L 136.5 594 Z " /><path fill="rgb(252,252,252)" stroke="rgb(252,252,252)" stroke-width="1" opacity="1" d="M 189.5 594 L 192 594.5 L 189.5 595 L 189.5 594 Z " /><path fill="rgb(252,252,252)" stroke="rgb(252,252,252)" stroke-width="1" opacity="1" d="M 141.5 595 L 144 595.5 L 141.5 596 L 141.5 595 Z " /><path fill="rgb(252,252,252)" stroke="rgb(252,252,252)" stroke-width="1" opacity="1" d="M 147.5 596 L 151 596.5 L 147.5 597 L 147.5 596 Z " /><path fill="rgb(252,252,252)" stroke="rgb(252,252,252)" stroke-width="1" opacity="1" d="M 176.5 596 L 181 596.5 L 176.5 597 L 176.5 596 Z " /><path fill="rgb(252,252,252)" stroke="rgb(252,252,252)" stroke-width="1" opacity="1" d="M 160.5 597 L 167 597.5 L 160.5 598 L 160.5 597 Z " /><path fill="rgb(245,245,245)" stroke="rgb(245,245,245)" stroke-width="1" opacity="1" d="M 288.5 107 L 317.5 107 L 342.5 112 L 358.5 118 Q 389.9 133.1 411 158.5 L 421.5 170 L 462.5 208 L 488.5 227 L 515.5 239 L 523.5 241 L 539.5 241 L 568.5 234 L 592.5 225 L 603.5 223 L 624.5 223 L 638.5 226 L 653.5 232 Q 667.2 239.3 676 251.5 Q 699.6 281.9 698 337.5 L 697 338.5 L 695 356.5 L 685 390.5 L 668 426.5 Q 641.8 470.8 604.5 504 Q 580.4 525.4 551.5 542 L 529.5 553 L 491.5 567 L 461.5 574 L 456.5 574 L 443.5 577 L 435.5 577 L 434.5 578 L 413.5 579 L 412.5 580 L 365.5 580 L 364.5 579 L 339.5 579 L 338.5 578 L 315.5 578 L 314.5 577 L 286.5 577 L 285.5 578 L 271.5 578 L 270.5 579 L 250.5 581 L 183.5 596 Q 177.2 594.3 175.5 597 L 151.5 597 L 134.5 594 L 103.5 582 Q 72.4 565.1 50 539.5 L 27 508.5 L 15 484.5 L 10 469.5 L 5 446.5 L 5 438.5 L 4 437.5 L 4 403.5 L 5 402.5 L 5 393.5 L 9 378.5 L 29 333.5 Q 42.1 311.1 60.5 294 L 89.5 269 L 155.5 221 L 179 200.5 L 201 158.5 Q 209.9 143.9 222.5 133 L 232.5 126 L 252.5 116 L 267.5 111 L 288.5 107 Z " /><path fill="rgb(254,254,254)" stroke="rgb(254,254,254)" stroke-width="1" opacity="1" d="M 311.5 106 L 314 106.5 L 311.5 107 L 311.5 106 Z " /><path fill="rgb(254,254,254)" stroke="rgb(254,254,254)" stroke-width="1" opacity="1" d="M 220.5 134 L 214.5 141 L 220.5 134 Z " /><path fill="rgb(254,254,254)" stroke="rgb(254,254,254)" stroke-width="1" opacity="1" d="M 404.5 151 L 408.5 156 L 404.5 151 Z " /><path fill="rgb(254,254,254)" stroke="rgb(254,254,254)" stroke-width="1" opacity="1" d="M 425.5 172 L 427.5 175 L 425.5 172 Z " /><path fill="rgb(254,254,254)" stroke="rgb(254,254,254)" stroke-width="1" opacity="1" d="M 445.5 191 L 449.5 196 L 445.5 191 Z " /><path fill="rgb(254,254,254)" stroke="rgb(254,254,254)" stroke-width="1" opacity="1" d="M 457.5 202 L 458.5 204 L 457.5 202 Z " /><path fill="rgb(254,254,254)" stroke="rgb(254,254,254)" stroke-width="1" opacity="1" d="M 175.5 203 L 173.5 206 L 175.5 203 Z " /><path fill="rgb(254,254,254)" stroke="rgb(254,254,254)" stroke-width="1" opacity="1" d="M 674.5 249 L 675.5 251 L 674.5 249 Z " /><path fill="rgb(254,254,254)" stroke="rgb(254,254,254)" stroke-width="1" opacity="1" d="M 77.5 278 L 76.5 280 L 77.5 278 Z " /><path fill="rgb(254,254,254)" stroke="rgb(254,254,254)" stroke-width="1" opacity="1" d="M 71.5 283 L 69.5 286 L 71.5 283 Z " /><path fill="rgb(254,254,254)" stroke="rgb(254,254,254)" stroke-width="1" opacity="1" d="M 56.5 297 L 55.5 299 L 56.5 297 Z " /><path fill="rgb(254,254,254)" stroke="rgb(254,254,254)" stroke-width="1" opacity="1" d="M 46.5 308 L 45.5 310 L 46.5 308 Z " /><path fill="rgb(254,254,254)" stroke="rgb(254,254,254)" stroke-width="1" opacity="1" d="M 698.5 324 L 699 326.5 L 698 326.5 L 698.5 324 Z " /><path fill="rgb(254,254,254)" stroke="rgb(254,254,254)" stroke-width="1" opacity="1" d="M 698.5 329 L 699 332.5 L 698 332.5 L 698.5 329 Z " /><path fill="rgb(254,254,254)" stroke="rgb(254,254,254)" stroke-width="1" opacity="1" d="M 628.5 480 L 626.5 483 L 628.5 480 Z " /><path fill="rgb(254,254,254)" stroke="rgb(254,254,254)" stroke-width="1" opacity="1" d="M 608.5 500 L 606.5 503 L 608.5 500 Z " /><path fill="rgb(254,254,254)" stroke="rgb(254,254,254)" stroke-width="1" opacity="1" d="M 598.5 509 L 597.5 511 L 598.5 509 Z " /><path fill="rgb(254,254,254)" stroke="rgb(254,254,254)" stroke-width="1" opacity="1" d="M 50.5 540 L 55.5 546 L 50.5 540 Z " /><path fill="rgb(254,254,254)" stroke="rgb(254,254,254)" stroke-width="1" opacity="1" d="M 60.5 550 L 64.5 555 L 60.5 550 Z " /><path fill="rgb(254,254,254)" stroke="rgb(254,254,254)" stroke-width="1" opacity="1" d="M 395.5 580 L 399 580.5 L 395.5 581 L 395.5 580 Z " /><path fill="rgb(254,254,254)" stroke="rgb(254,254,254)" stroke-width="1" opacity="1" d="M 156.5 597 L 160 597.5 L 156.5 598 L 156.5 597 Z " /><path fill="rgb(254,254,254)" stroke="rgb(254,254,254)" stroke-width="1" opacity="1" d="M 167.5 597 L 171 597.5 L 167.5 598 L 167.5 597 Z " /><path fill="rgb(255,255,255)" stroke="rgb(255,255,255)" stroke-width="1" opacity="1" d="M 0 0 L 700 0 L 700 700 L 0 700 L 0 0 Z M 293 106 L 292 107 L 284 107 L 269 110 L 254 115 L 232 126 L 221 134 Q 209 144 201 158 L 179 200 L 159 218 L 89 269 L 57 297 Q 33 320 19 353 L 6 387 L 4 398 L 4 408 L 3 409 L 3 433 L 4 434 L 5 450 L 8 465 L 14 484 L 28 512 L 50 541 Q 71 564 99 580 L 115 588 L 133 594 L 147 597 L 156 597 L 157 598 L 181 597 L 249 582 L 267 580 L 268 579 L 279 579 L 280 578 L 326 578 L 327 579 L 347 579 L 348 580 L 388 580 L 389 581 L 421 580 L 422 579 L 448 577 L 479 571 L 506 563 Q 532 554 555 541 Q 583 524 607 503 Q 646 467 673 419 Q 684 398 691 375 L 697 350 L 698 334 L 699 333 L 698 311 L 694 289 Q 688 266 676 251 Q 667 239 655 232 L 641 226 L 621 222 L 607 222 L 606 223 L 595 224 L 567 234 L 543 240 L 523 240 L 509 236 L 492 228 L 465 209 L 425 172 L 409 156 Q 388 131 358 117 L 334 109 L 315 107 L 314 106 L 293 106 Z " /></svg>