<?xml version="1.0" standalone="no"?>
<!DOCTYPE svg PUBLIC "-//W3C//DTD SVG 20010904//EN"
 "http://www.w3.org/TR/2001/REC-SVG-20010904/DTD/svg10.dtd">
<svg version="1.0" xmlns="http://www.w3.org/2000/svg"
 width="1000.000000pt" height="40.000000pt" viewBox="0 0 1000.000000 40.000000"
 preserveAspectRatio="xMidYMid meet">

<g transform="translate(0.000000,40.000000) scale(0.100000,-0.100000)"
fill="#000000" stroke="none">
<path d="M7750 243 c-789 -9 -1936 -32 -3320 -68 -1863 -48 -2573 -63 -3608
-74 -426 -5 -776 -12 -779 -15 -3 -3 -3 -13 1 -22 6 -15 53 -16 624 -10 1410
15 2623 40 4527 91 1284 35 2966 57 3955 53 799 -3 805 -3 805 17 0 18 -9 21
-75 26 -69 6 -1677 7 -2130 2z"/>
</g>
</svg>
